<?xml version="1.0" encoding="utf-8"?>
<!-- Generator: Adobe Illustrator 25.0.0, SVG Export Plug-In . SVG Version: 6.00 Build 0)  -->
<svg version="1.1" xmlns="http://www.w3.org/2000/svg" xmlns:xlink="http://www.w3.org/1999/xlink" x="0px" y="0px"
	 viewBox="0 0 226.8 137.6" style="enable-background:new 0 0 226.8 137.6;" xml:space="preserve">
<style type="text/css">
	.st0{display:none;}
	.st1{display:inline;}
	.st2{fill-rule:evenodd;clip-rule:evenodd;}
	.st3{fill:#231F20;}
</style>
<g id="Capa_1">
	<g id="Capa_1_2_" class="st0">
		<g id="Capa_1_1_" focusable="false" class="st1">
			<path class="st2" d="M9.3,14.7l1.4-1.4l7.3,7.3l7.3-7.3l1.4,1.4L18,23.4L9.3,14.7z"/>
		</g>
		<g id="Capa_2_1_" class="st1">
		</g>
	</g>
	<path d="M104.6,134L3.7,33c-4.9-4.9-4.9-12.8,0-17.6L15.4,3.7c4.9-4.9,12.7-4.9,17.6,0l80.4,80l80.4-80c4.9-4.8,12.7-4.8,17.6,0
		l11.8,11.8c4.9,4.9,4.9,12.8,0,17.6L122.2,134C117.3,138.8,109.4,138.8,104.6,134L104.6,134z"/>
</g>
<g id="Capa_2" class="st0">
	<g id="Capa_3" class="st1">
		<path class="st3" d="M113.4,39.7L35.4,0l78,226.8L191.4,0L113.4,39.7z M63.8,35.6l49.6,25.3L163,35.6l-49.6,144.3L63.8,35.6z"/>
	</g>
</g>
</svg>
