<?xml version="1.0" encoding="utf-8"?>
<!-- Generator: Adobe Illustrator 25.0.0, SVG Export Plug-In . SVG Version: 6.00 Build 0)  -->
<svg version="1.1" id="Capa_1" xmlns="http://www.w3.org/2000/svg" xmlns:xlink="http://www.w3.org/1999/xlink" x="0px" y="0px"
	 viewBox="0 0 226.8 226.8" style="enable-background:new 0 0 226.8 226.8;" xml:space="preserve">
<style type="text/css">
	.st0{fill:#ACACAC;}
</style>
<path class="st0" d="M113.4,0C50.8,0,0,50.8,0,113.4C0,176,50.8,226.8,113.4,226.8S226.8,176,226.8,113.4C226.8,50.8,176,0,113.4,0z
	 M113.4,50.3c10.6,0,19.2,8.6,19.2,19.2s-8.6,19.2-19.2,19.2s-19.2-8.6-19.2-19.2S102.8,50.3,113.4,50.3z M139,166.4
	c0,3-2.5,5.5-5.5,5.5H93.3c-3,0-5.5-2.5-5.5-5.5v-11c0-3,2.5-5.5,5.5-5.5h5.5v-29.3h-5.5c-3,0-5.5-2.5-5.5-5.5v-11
	c0-3,2.5-5.5,5.5-5.5h29.3c3,0,5.5,2.5,5.5,5.5V150h5.5c3,0,5.5,2.5,5.5,5.5V166.4z"/>
</svg>
